<svg width="792" height="693" viewBox="0 0 792 693" fill="none" xmlns="http://www.w3.org/2000/svg">
<g id="Enabble Location">
<path id="Stroke 1" fill-rule="evenodd" clip-rule="evenodd" d="M715.594 379.825C715.594 551.788 576.187 691.195 404.224 691.195C232.261 691.195 92.8569 551.788 92.8569 379.825C92.8569 207.862 232.261 68.4553 404.224 68.4553C576.187 68.4553 715.594 207.862 715.594 379.825Z" stroke="#E9EAEC" stroke-dasharray="5.02 5.02"/>
<path id="Stroke 3" fill-rule="evenodd" clip-rule="evenodd" d="M635.45 379.825C635.45 507.526 531.926 611.05 404.225 611.05C276.521 611.05 173.003 507.526 173.003 379.825C173.003 252.124 276.521 148.6 404.225 148.6C531.926 148.6 635.45 252.124 635.45 379.825Z" stroke="#E9EAEC" stroke-dasharray="5.05 5.05"/>
<path id="Stroke 5" d="M34.0344 421.747L28.2534 421.57" stroke="#D2D8DF" stroke-linecap="round"/>
<path id="Stroke 7" d="M29.8872 410.786L25.7412 414.659" stroke="#D2D8DF" stroke-linecap="round"/>
<path id="Stroke 9" d="M19.0812 405.781L18.9942 411.433" stroke="#D2D8DF" stroke-linecap="round"/>
<path id="Stroke 11" d="M7.94403 409.661L11.97 413.783" stroke="#D2D8DF" stroke-linecap="round"/>
<path id="Stroke 13" d="M3 420.157L8.778 420.334" stroke="#D2D8DF" stroke-linecap="round"/>
<path id="Stroke 15" d="M7.14569 431.118L11.2947 427.245" stroke="#D2D8DF" stroke-linecap="round"/>
<path id="Stroke 17" d="M17.9532 436.125L18.0402 430.473" stroke="#D2D8DF" stroke-linecap="round"/>
<path id="Stroke 19" d="M29.0904 432.243L25.0644 428.121" stroke="#D2D8DF" stroke-linecap="round"/>
<path id="Stroke 21" d="M787.943 341.167L785.402 343.918" stroke="#D2D8DF" stroke-linecap="round"/>
<path id="Stroke 23" d="M776.013 343.557L777.93 345.324" stroke="#D2D8DF" stroke-linecap="round"/>
<path id="Stroke 25" d="M774.079 355.751L776.62 353" stroke="#D2D8DF" stroke-linecap="round"/>
<path id="Stroke 27" d="M786.006 353.36L784.092 351.593" stroke="#D2D8DF" stroke-linecap="round"/>
<path id="Stroke 29" d="M555.211 17.8404L549.064 17.6754" stroke="#D2D8DF" stroke-linecap="round"/>
<path id="Stroke 31" d="M539.306 3L539.213 8.253" stroke="#D2D8DF" stroke-linecap="round"/>
<path id="Stroke 33" d="M522.199 16.3623L528.346 16.5243" stroke="#D2D8DF" stroke-linecap="round"/>
<path id="Stroke 35" d="M538.105 31.2027L538.198 25.9497" stroke="#D2D8DF" stroke-linecap="round"/>
<path id="Fill 37" fill-rule="evenodd" clip-rule="evenodd" d="M100.011 585.019C95.589 586.342 88.224 592.84 85.704 600.544C85.281 593.386 80.736 584.389 75.735 583.093C81.837 580.936 88.446 573.007 90.204 566.326C89.886 573.328 96.243 583.495 100.011 585.019Z" fill="#EBECEF"/>
<path id="Fill 39" fill-rule="evenodd" clip-rule="evenodd" d="M203.578 45.9771C200.167 46.5801 194.122 50.7801 191.578 56.3001C191.881 50.9331 189.274 43.8381 185.662 42.4401C190.393 41.3601 196.003 36.0261 197.89 31.2021C197.047 36.3921 200.902 44.5161 203.578 45.9771Z" fill="#EBECEF"/>
<path id="Fill 41" fill-rule="evenodd" clip-rule="evenodd" d="M655.679 84.9506C651.122 84.8516 647.51 81.0806 647.612 76.5266C647.711 71.9726 651.482 68.3606 656.033 68.4596C660.59 68.5586 664.202 72.3296 664.103 76.8836C664.001 81.4376 660.233 85.0496 655.679 84.9506Z" fill="#D1D9E0"/>
<path id="Fill 43" fill-rule="evenodd" clip-rule="evenodd" d="M655.7 625.408C651.737 625.324 648.593 622.039 648.677 618.076C648.761 614.11 652.046 610.966 656.012 611.05C659.978 611.137 663.122 614.419 663.035 618.385C662.948 622.348 659.666 625.495 655.7 625.408Z" fill="#EBECEF"/>
<path id="Stroke 45" fill-rule="evenodd" clip-rule="evenodd" d="M59.4669 194.41C57.0129 194.356 55.0659 192.325 55.1199 189.868C55.1709 187.414 57.2049 185.47 59.6589 185.521C62.1129 185.575 64.0599 187.606 64.0089 190.06C63.9549 192.517 61.9209 194.464 59.4669 194.41Z" stroke="#D2D8DF" stroke-linecap="round"/>
<path id="Fill 47" fill-rule="evenodd" clip-rule="evenodd" d="M538.198 177.202C538.198 192.997 525.391 205.801 509.599 205.801C493.801 205.801 481 192.997 481 177.202C481 161.407 493.801 148.6 509.599 148.6C525.391 148.6 538.198 161.407 538.198 177.202Z" fill="white"/>
<path id="Fill 49" fill-rule="evenodd" clip-rule="evenodd" d="M221.693 555.164L179.087 292.166C178.454 288.272 180.245 284.384 183.611 282.332L296.144 213.641C298.358 212.291 301.016 211.88 303.53 212.501L442.343 246.833C444.944 247.475 447.695 247.013 449.945 245.558L542.807 185.471C548.267 181.937 555.593 184.67 557.399 190.919L635.531 460.685C636.674 464.636 635.204 468.878 631.865 471.275L546.371 532.544C544.052 534.203 541.127 534.761 538.364 534.071L375.749 493.418C373.475 492.851 371.069 493.124 368.984 494.189L235.688 562.256C229.826 565.247 222.749 561.662 221.693 555.164Z" fill="#F1F2F7"/>
<path id="Fill 51" fill-rule="evenodd" clip-rule="evenodd" d="M509.953 199.452C496.429 199.452 485.467 188.487 485.467 174.963C485.467 161.439 496.429 150.474 509.953 150.474C523.48 150.474 534.442 161.439 534.442 174.963C534.442 188.487 523.48 199.452 509.953 199.452ZM509.953 123.264C482.194 122.478 459.052 144.345 458.266 172.104C458.245 172.893 458.242 173.685 458.257 174.474C458.257 217.356 506.143 257.028 508.159 258.66C509.176 259.533 510.676 259.533 511.696 258.66C513.817 256.758 561.652 213.111 561.652 174.474C562.174 146.706 540.091 123.774 512.323 123.255C511.534 123.24 510.745 123.243 509.953 123.264Z" fill="url(#paint0_linear_219_242)"/>
<path id="Stroke 53" d="M317.095 435.823L399.979 457.447C408.7 459.721 415.561 449.944 410.437 442.531C381.826 401.155 328.276 315.4 378.661 319C444.967 323.737 432.337 383.617 446.545 391.567C460.756 399.514 546.004 381.76 549.16 350.383C552.319 319 541.27 303.214 519.166 293.743C497.065 284.269 508.159 258.661 508.159 258.661" stroke="#0E1D25" stroke-width="2" stroke-dasharray="7"/>
<path id="Fill 55" fill-rule="evenodd" clip-rule="evenodd" d="M211.096 327.089L205.423 305.03C204.169 300.158 206.329 295.049 210.7 292.55L279.838 253.043C280.384 252.731 280.951 252.467 281.539 252.251L304.456 243.866C306.439 243.14 308.59 242.99 310.657 243.437L360.943 254.318C364.972 255.188 368.191 258.206 369.322 262.166C371.479 269.714 365.386 277.07 357.571 276.359L335.449 274.349C328.372 273.704 322.501 279.746 323.347 286.802L325.384 303.779C326.002 308.927 322.996 313.823 318.127 315.602L271.645 332.579C268.369 333.773 264.727 333.371 261.79 331.493L249.043 323.339C243.838 320.006 236.917 321.536 233.599 326.75L231.337 330.305C226.09 338.549 213.532 336.554 211.096 327.089Z" fill="#D8DBEA"/>
<path id="Fill 57" fill-rule="evenodd" clip-rule="evenodd" d="M516.674 426.923L532.544 494.942C534.368 502.76 543.605 506.159 550.061 501.386L602.9 462.329C606.596 459.602 608.24 454.889 607.049 450.452L594.653 404.252C593.015 398.144 586.64 394.613 580.598 396.464L524.282 413.705C518.663 415.424 515.339 421.202 516.674 426.923Z" fill="#D8DBEA"/>
<path id="Fill 59" fill-rule="evenodd" clip-rule="evenodd" d="M451.48 449.448L487.723 451.77C492.469 452.076 496.504 455.352 497.773 459.939L504.817 485.385C507.085 493.572 499.747 501.192 491.479 499.233L455.605 490.737C452.017 489.888 449.077 487.32 447.754 483.879L440.341 464.604C437.419 457.002 443.353 448.929 451.48 449.448Z" fill="#D8DBEA"/>
<path id="Fill 61" fill-rule="evenodd" clip-rule="evenodd" d="M283.74 432.886C269.097 432.886 257.226 421.015 257.226 406.375C257.226 391.732 269.097 379.861 283.74 379.861C298.383 379.861 310.251 391.732 310.251 406.375C310.251 421.015 298.383 432.886 283.74 432.886ZM283.74 350.404C253.683 349.552 228.633 373.225 227.781 403.279C227.757 404.134 227.754 404.989 227.769 405.844C227.769 452.269 279.615 495.22 281.796 496.987C282.897 497.932 284.523 497.932 285.624 496.987C287.925 494.926 339.708 447.676 339.708 405.844C340.275 375.784 316.365 350.956 286.302 350.392C285.447 350.377 284.592 350.38 283.74 350.404Z" fill="url(#paint1_linear_219_242)"/>
</g>
<defs>
<linearGradient id="paint0_linear_219_242" x1="458.248" y1="123.243" x2="458.248" y2="259.314" gradientUnits="userSpaceOnUse">
<stop stop-color="#FAD961"/>
<stop offset="1" stop-color="#F76B1C"/>
</linearGradient>
<linearGradient id="paint1_linear_219_242" x1="283.739" y1="276.725" x2="141.804" y2="384.595" gradientUnits="userSpaceOnUse">
<stop stop-color="#FF8960"/>
<stop offset="1" stop-color="#FF62A5"/>
</linearGradient>
</defs>
</svg>
