<svg width="68" height="62" viewBox="0 0 68 62" fill="none" xmlns="http://www.w3.org/2000/svg">
<path opacity="0.5" fill-rule="evenodd" clip-rule="evenodd" d="M26.4445 61.2H41.5555C52.1672 61.2 57.4729 61.2 61.2843 58.6996C62.934 57.6171 64.3508 56.2261 65.4534 54.6064C68 50.8643 68 45.6549 68 35.2362C68 24.818 68 19.6085 65.4534 15.8664C64.3508 14.2465 62.934 12.8555 61.2843 11.7731C58.835 10.1664 55.7692 9.59218 51.0748 9.38692C48.8345 9.38692 46.9061 7.72031 46.4668 5.56362C45.8075 2.32863 42.9145 0 39.5546 0H28.4454C25.0854 0 22.1923 2.32863 21.5333 5.56362C21.094 7.72031 19.1653 9.38692 16.9252 9.38692C12.2309 9.59218 9.16487 10.1664 6.71582 11.7731C5.06583 12.8555 3.64915 14.2465 2.54667 15.8664C3.24249e-07 19.6085 0 24.818 0 35.2362C0 45.6549 3.24249e-07 50.8643 2.54667 54.6064C3.64915 56.2261 5.06583 57.6171 6.71582 58.6996C10.5272 61.2 15.8329 61.2 26.4445 61.2ZM47.6 34C47.6 41.5109 41.5109 47.6 34 47.6C26.4889 47.6 20.4 41.5109 20.4 34C20.4 26.4891 26.4889 20.4 34 20.4C41.5109 20.4 47.6 26.4891 47.6 34ZM54.4 21.25C52.9917 21.25 51.85 22.3917 51.85 23.8C51.85 25.2083 52.9917 26.35 54.4 26.35H57.8C59.2083 26.35 60.35 25.2083 60.35 23.8C60.35 22.3917 59.2083 21.25 57.8 21.25H54.4Z" fill="#FDB833"/>
<path fill-rule="evenodd" clip-rule="evenodd" d="M47.5999 34C47.5999 41.5109 41.5108 47.6 33.9999 47.6C26.4888 47.6 20.3999 41.5109 20.3999 34C20.3999 26.4891 26.4888 20.4 33.9999 20.4C41.5108 20.4 47.5999 26.4891 47.5999 34ZM36.5499 27.2C36.5499 25.7917 35.4082 24.65 33.9999 24.65C32.5916 24.65 31.4499 25.7917 31.4499 27.2V31.45H27.1999C25.7916 31.45 24.6499 32.5917 24.6499 34C24.6499 35.4083 25.7916 36.55 27.1999 36.55H31.4499V40.8C31.4499 42.2083 32.5916 43.35 33.9999 43.35C35.4082 43.35 36.5499 42.2083 36.5499 40.8V36.55H40.7999C42.2082 36.55 43.3499 35.4083 43.3499 34C43.3499 32.5917 42.2082 31.45 40.7999 31.45H36.5499V27.2Z" fill="#FFC85D"/>
<path d="M54.4001 21.25C52.9918 21.25 51.8501 22.3917 51.8501 23.8C51.8501 25.2083 52.9918 26.35 54.4001 26.35H57.8001C59.2084 26.35 60.3501 25.2083 60.3501 23.8C60.3501 22.3917 59.2084 21.25 57.8001 21.25H54.4001Z" fill="#FFC85D"/>
</svg>
