<svg width="11" height="11" viewBox="0 0 11 11" fill="none" xmlns="http://www.w3.org/2000/svg">
<path d="M0.687675 9.62677H2.06298V4.81321H0.687675C0.388891 4.81321 0.124318 4.61981 0.0328608 4.33581C-0.0584249 4.05112 0.0448942 3.73945 0.287978 3.56616L5.10154 0.127903C5.34067 -0.0426344 5.66163 -0.0426344 5.90059 0.127903L10.7141 3.56616C10.9572 3.73945 11.0607 4.05095 10.9693 4.33581C10.8781 4.61981 10.6136 4.81321 10.3148 4.81321H8.93949V9.62677H10.3148C10.6949 9.62677 11.0024 9.93432 11.0024 10.3144V11.0021H2.47955e-05V10.3144C2.47955e-05 9.93432 0.307577 9.62677 0.687675 9.62677ZM6.18888 9.62677H7.56419V4.81321H6.18888V9.62677ZM3.43828 9.62677H4.81358V4.81321H3.43828V9.62677Z" fill="#001E28"/>
</svg>
