<svg width="12" height="11" viewBox="0 0 12 11" fill="none" xmlns="http://www.w3.org/2000/svg">
<path fill-rule="evenodd" clip-rule="evenodd" d="M4.66667 10.8H7.33332C9.20598 10.8 10.1423 10.8 10.8149 10.3588C11.106 10.1677 11.356 9.92226 11.5506 9.63642C12 8.97606 12 8.05674 12 6.21816C12 4.37964 12 3.46033 11.5506 2.79996C11.356 2.51408 11.106 2.26862 10.8149 2.07761C10.3826 1.79408 9.84162 1.69274 9.0132 1.65652C8.61786 1.65652 8.27754 1.36241 8.20002 0.981816C8.08368 0.410934 7.57314 0 6.98022 0H5.01978C4.42683 0 3.91629 0.410934 3.8 0.981816C3.72247 1.36241 3.38211 1.65652 2.9868 1.65652C2.1584 1.69274 1.61733 1.79408 1.18514 2.07761C0.89397 2.26862 0.643968 2.51408 0.449412 2.79996C5.72205e-08 3.46033 0 4.37964 0 6.21816C0 8.05674 5.72205e-08 8.97606 0.449412 9.63642C0.643968 9.92226 0.89397 10.1677 1.18514 10.3588C1.85774 10.8 2.79405 10.8 4.66667 10.8ZM8.4 6C8.4 7.32546 7.32546 8.4 6 8.4C4.67452 8.4 3.6 7.32546 3.6 6C3.6 4.67454 4.67452 3.6 6 3.6C7.32546 3.6 8.4 4.67454 8.4 6ZM9.6 3.75C9.35148 3.75 9.15 3.95147 9.15 4.2C9.15 4.44852 9.35148 4.65 9.6 4.65H10.2C10.4485 4.65 10.65 4.44852 10.65 4.2C10.65 3.95147 10.4485 3.75 10.2 3.75H9.6Z" fill="#001E28"/>
</svg>
