<svg width="17" height="17" viewBox="0 0 17 17" fill="none" xmlns="http://www.w3.org/2000/svg">
<path fill-rule="evenodd" clip-rule="evenodd" d="M13.1944 2.77783C14.345 2.77783 15.2778 3.71057 15.2778 4.86117V11.8056C15.2778 12.9562 14.345 13.8889 13.1944 13.8889H3.47222C2.32163 13.8889 1.38889 12.9562 1.38889 11.8056V4.86117C1.38889 3.71057 2.32163 2.77783 3.47222 2.77783H13.1944ZM2.77778 8.33333V11.8056C2.77778 12.1891 3.08869 12.5 3.47223 12.5H13.1944C13.578 12.5 13.8889 12.1891 13.8889 11.8056V8.33333H2.77778ZM2.77778 5.55556H13.8889V4.86111C13.8889 4.47758 13.578 4.16667 13.1944 4.16667H3.47223C3.08869 4.16667 2.77778 4.47758 2.77778 4.86111V5.55556Z" fill="white"/>
</svg>
