<svg width="34" height="34" viewBox="0 0 34 34" fill="none" xmlns="http://www.w3.org/2000/svg">
<path d="M24.9017 6.27803L22.0684 4.79116C19.5813 3.48598 18.3378 2.83337 17 2.83337C15.6622 2.83337 14.4187 3.48598 11.9316 4.79116L11.4758 5.03034L24.1168 12.2537L29.8071 9.40858C28.8916 8.37182 27.4146 7.59669 24.9017 6.27803Z" fill="#63767C"/>
<path d="M30.8102 11.2828L25.1458 14.115V18.4167C25.1458 19.0035 24.6701 19.4792 24.0833 19.4792C23.4966 19.4792 23.0208 19.0035 23.0208 18.4167V15.1775L18.0625 17.6566V31.0307C19.0795 30.7774 20.2368 30.1701 22.0684 29.2089L24.9017 27.7221C27.95 26.1224 29.474 25.3227 30.3203 23.8854C31.1667 22.4482 31.1667 20.6597 31.1667 17.0829V16.9171C31.1667 14.236 31.1667 12.5596 30.8102 11.2828Z" fill="#63767C"/>
<path d="M15.9375 31.0307V17.6566L3.18983 11.2828C2.83334 12.5596 2.83334 14.236 2.83334 16.9171V17.0829C2.83334 20.6597 2.83334 22.4482 3.67966 23.8854C4.52596 25.3227 6.05006 26.1224 9.09824 27.7221L11.9316 29.2089C13.7633 30.1701 14.9205 30.7774 15.9375 31.0307Z" fill="#63767C"/>
<path d="M4.1929 9.40849L17 15.8121L21.8325 13.3958L9.24313 6.2019L9.09825 6.27794C6.58545 7.5966 5.10837 8.37173 4.1929 9.40849Z" fill="#63767C"/>
</svg>
