<svg width="15" height="12" viewBox="0 0 15 12" fill="none" xmlns="http://www.w3.org/2000/svg">
<path d="M2.78719 1.5654C2.78719 0.698811 3.48046 0 4.35259 0C5.21918 0 5.91799 0.698811 5.91799 1.5654C5.91239 2.43753 5.21358 3.1308 4.35259 3.1308C3.48606 3.1308 2.78719 2.43199 2.78719 1.5654ZM11.4219 8.2794H8.58155V5.7412C8.58155 4.50464 7.50096 3.50513 6.28511 3.50513H2.47777C1.14288 3.50513 -0.000610555 4.66184 5.03824e-06 5.80163V10.455C-0.00156193 10.9707 0.362646 11.24 0.72523 11.2406C1.08865 11.2413 1.45046 10.972 1.45046 10.455V5.92246H1.93392V11.2362H6.64775V5.92246H7.13121L7.13614 8.96646C7.13289 9.49397 7.45899 9.7186 7.796 9.72974H11.422C12.4108 9.72979 12.4108 8.2794 11.4219 8.2794ZM12.5216 3.17383C12.4352 3.11283 12.3208 3.13572 12.2598 3.21704L11.5633 4.17787L11.2507 3.83979C11.1769 3.76609 11.0626 3.76352 10.9863 3.83218C10.9126 3.90589 10.91 4.02028 10.9787 4.09655L11.5963 4.76761L12.5622 3.43317C12.6233 3.35174 12.6029 3.23226 12.5216 3.17383ZM13.6044 3.95418L14.034 3.5348C14.1611 3.4128 14.1026 3.1993 13.9349 3.15861L13.3503 3.00863L13.5155 2.42908C13.5613 2.26387 13.4062 2.10628 13.2384 2.152L12.6589 2.31721L12.5089 1.73262C12.4682 1.56741 12.2522 1.50641 12.1327 1.63351L11.7133 2.0656L11.2939 1.63351C11.177 1.50893 10.9584 1.5649 10.9177 1.73262L10.7677 2.31721L10.1882 2.152C10.023 2.10623 9.8654 2.2613 9.91112 2.42908L10.0763 3.00863L9.49173 3.15861C9.32396 3.1993 9.26553 3.4128 9.39262 3.5348L9.82219 3.95418L9.3952 4.37357C9.2681 4.49557 9.32659 4.70907 9.49431 4.74975L10.0789 4.89973L9.91369 5.47929C9.86792 5.64449 10.023 5.80208 10.1908 5.75636L10.7601 5.59368L9.94677 7.2128L10.6254 7.01962L10.8135 7.64747L11.7133 5.85295L12.6131 7.64747L12.8012 7.01962L13.4798 7.2128L12.6665 5.59368L13.2358 5.75636C13.401 5.80214 13.5586 5.64707 13.5129 5.47929L13.3477 4.89973L13.9323 4.74975C14.1001 4.70907 14.1585 4.49557 14.0314 4.37357L13.6044 3.95418ZM11.7641 5.36233C10.9863 5.36233 10.3585 4.73448 10.3585 3.9567C10.3585 3.17893 10.9863 2.54856 11.7641 2.54856C12.5369 2.54856 13.1697 3.17641 13.1697 3.95418C13.1697 4.73196 12.5419 5.36233 11.7641 5.36233Z" fill="#001E28"/>
</svg>
