<svg width="13" height="12" viewBox="0 0 13 12" fill="none" xmlns="http://www.w3.org/2000/svg">
<path fill-rule="evenodd" clip-rule="evenodd" d="M0.0215599 6.65935V10.6335C0.0215599 10.8887 0.228682 11.0958 0.483886 11.0958H1.47881C1.5883 11.0958 1.69424 11.057 1.77778 10.9862C1.86131 10.9155 1.91702 10.8173 1.93497 10.7093L2.17908 9.24652H10.1927L10.4362 10.7093C10.4542 10.8173 10.5099 10.9155 10.5934 10.9862C10.677 11.057 10.7829 11.0958 10.8924 11.0958H11.8879C12.0105 11.0958 12.1281 11.0471 12.2148 10.9604C12.3015 10.8737 12.3503 10.7561 12.3503 10.6335V6.65935C12.3503 5.93468 12.1358 5.22622 11.7338 4.62326L11.253 3.90203C11.2101 3.83782 11.1734 3.76971 11.1433 3.69861H11.756C11.8419 3.69861 11.9261 3.67467 11.9992 3.62948C12.0722 3.5843 12.1313 3.51965 12.1696 3.44279L12.3237 3.13457C12.3589 3.06413 12.3755 2.98588 12.372 2.90723C12.3684 2.82858 12.3448 2.75214 12.3035 2.68515C12.2621 2.61817 12.2043 2.56285 12.1356 2.52446C12.0669 2.48606 11.9895 2.46585 11.9107 2.46574H10.8708L10.6797 1.51273C10.6216 1.22249 10.4811 0.955126 10.275 0.742615C10.069 0.530104 9.80605 0.381435 9.51774 0.314382C8.61651 0.104794 7.50569 0 6.18591 0C4.8655 0 3.7553 0.104794 2.85408 0.314382C2.56565 0.38133 2.30261 0.529953 2.09643 0.742472C1.89026 0.954991 1.74967 1.22241 1.69148 1.51273L1.50039 2.46574H0.461694C0.382965 2.46585 0.305568 2.48606 0.236838 2.52446C0.168107 2.56285 0.110321 2.61817 0.0689562 2.68515C0.0275912 2.75214 0.00401762 2.82858 0.00046975 2.90723C-0.00307812 2.98588 0.0135172 3.06413 0.0486829 3.13457L0.202792 3.44279C0.241116 3.51955 0.300046 3.58414 0.372987 3.62932C0.445928 3.6745 0.530003 3.69849 0.615803 3.69861H1.22916C1.19903 3.7697 1.1623 3.83781 1.11943 3.90203L0.637995 4.62326C0.236079 5.22613 0.0215599 5.93442 0.0215599 6.65935ZM9.86048 3.70107C9.90294 3.91428 9.97341 4.12093 10.0701 4.31566H2.30175C2.39853 4.12148 2.46881 3.91498 2.51134 3.70107L2.90093 1.75499C2.91243 1.69681 2.94047 1.64317 2.98169 1.60053C3.02291 1.55789 3.07556 1.52804 3.13332 1.51458C3.93345 1.32965 4.95304 1.23287 6.18591 1.23287C7.41878 1.23287 8.43836 1.32903 9.23849 1.5152C9.29628 1.52851 9.34901 1.55822 9.39034 1.60075C9.43167 1.64328 9.45985 1.69684 9.4715 1.75499L9.86048 3.70107ZM2.17908 7.39722C2.42431 7.39722 2.6595 7.2998 2.83291 7.12639C3.00632 6.95299 3.10373 6.7178 3.10373 6.47256C3.10373 6.22733 3.00632 5.99214 2.83291 5.81874C2.6595 5.64533 2.42431 5.54791 2.17908 5.54791C1.93385 5.54791 1.69866 5.64533 1.52525 5.81874C1.35185 5.99214 1.25443 6.22733 1.25443 6.47256C1.25443 6.7178 1.35185 6.95299 1.52525 7.12639C1.69866 7.2998 1.93385 7.39722 2.17908 7.39722ZM11.1174 6.47256C11.1174 6.7178 11.02 6.95299 10.8466 7.12639C10.6732 7.2998 10.438 7.39722 10.1927 7.39722C9.9475 7.39722 9.71231 7.2998 9.53891 7.12639C9.3655 6.95299 9.26808 6.7178 9.26808 6.47256C9.26808 6.22733 9.3655 5.99214 9.53891 5.81874C9.71231 5.64533 9.9475 5.54791 10.1927 5.54791C10.438 5.54791 10.6732 5.64533 10.8466 5.81874C11.02 5.99214 11.1174 6.22733 11.1174 6.47256Z" fill="#001E28"/>
</svg>
