<svg width="26" height="26" viewBox="0 0 26 26" fill="none" xmlns="http://www.w3.org/2000/svg">
<path d="M19.2241 17.3333C20.0809 16.1049 20.5833 14.6111 20.5833 13C20.5833 12.4422 20.5231 11.8984 20.4088 11.375M6.7759 17.3333C5.91912 16.105 5.41666 14.6111 5.41666 13C5.41666 8.8118 8.81183 5.41663 13 5.41663C13.4573 5.41663 13.9051 5.45711 14.3402 5.53468M17.8749 8.12496L12.9999 13M23.8333 13C23.8333 18.983 18.983 23.8333 13 23.8333C7.0169 23.8333 2.16666 18.983 2.16666 13C2.16666 7.01687 7.0169 2.16663 13 2.16663C18.983 2.16663 23.8333 7.01687 23.8333 13ZM14.0833 13C14.0833 13.5983 13.5983 14.0833 13 14.0833C12.4017 14.0833 11.9167 13.5983 11.9167 13C11.9167 12.4016 12.4017 11.9166 13 11.9166C13.5983 11.9166 14.0833 12.4016 14.0833 13Z" stroke="white" stroke-width="2" stroke-linecap="round" stroke-linejoin="round"/>
</svg>
