<svg width="180" height="180" viewBox="0 0 180 180" fill="none" xmlns="http://www.w3.org/2000/svg">
<path d="M104.71 33.9034C99.823 20.1613 80.177 20.1613 75.2901 33.9034C73.2053 39.7658 66.3547 42.6035 60.7352 39.9323C47.5625 33.6707 33.6707 47.5625 39.9323 60.7352C42.6035 66.3547 39.7658 73.2053 33.9034 75.2901C20.1613 80.177 20.1613 99.823 33.9034 104.71C39.7658 106.795 42.6035 113.645 39.9323 119.265C33.6707 132.438 47.5625 146.329 60.7352 140.068C66.3547 137.397 73.2053 140.234 75.2901 146.097C80.177 159.839 99.823 159.839 104.71 146.097C106.795 140.234 113.645 137.397 119.265 140.068C132.438 146.329 146.329 132.438 140.068 119.265C137.397 113.645 140.234 106.795 146.097 104.71C159.839 99.823 159.839 80.177 146.097 75.2901C140.234 73.2053 137.397 66.3547 140.068 60.7352C146.329 47.5625 132.438 33.6707 119.265 39.9323C113.645 42.6035 106.795 39.7658 104.71 33.9034Z" fill="#FDB833" stroke="#001E28" stroke-width="5"/>
<path d="M71 86.1338L85.3662 100.5L110.866 75" stroke="#001E28" stroke-width="7.90141" stroke-linecap="round" stroke-linejoin="round"/>
</svg>
