<svg width="34" height="34" viewBox="0 0 34 34" fill="none" xmlns="http://www.w3.org/2000/svg">
<path fill-rule="evenodd" clip-rule="evenodd" d="M31.1616 11.8648H25.1625C22.3708 11.8697 20.1091 14.0748 20.1041 16.7968C20.1003 19.525 22.3645 21.7399 25.1625 21.7436H31.1667V22.177C31.1667 26.9359 28.2817 29.75 23.3996 29.75H10.6017C5.71831 29.75 2.83334 26.9359 2.83334 22.177V11.812C2.83334 7.05305 5.71831 4.25 10.6017 4.25H23.3945C28.2767 4.25 31.1616 7.05305 31.1616 11.812V11.8648ZM9.54771 11.8537H17.5377H17.5428H17.5528C18.151 11.8513 18.6345 11.3761 18.632 10.7917C18.6295 10.2085 18.1409 9.737 17.5428 9.73946H9.54771C8.95334 9.74191 8.47105 10.2122 8.46853 10.7929C8.46601 11.3761 8.94957 11.8513 9.54771 11.8537Z" fill="#63767C"/>
<path opacity="0.4" d="M22.7197 17.4203C23.0159 18.7678 24.1974 19.7159 25.5462 19.6912H30.1503C30.7115 19.6912 31.1667 19.2264 31.1667 18.6519V15.0656C31.1655 14.4923 30.7115 14.0263 30.1503 14.025H25.4378C23.9035 14.03 22.6643 15.3035 22.6667 16.8729C22.6667 17.0566 22.6848 17.2403 22.7197 17.4203Z" fill="#63767C"/>
<circle cx="25.5" cy="16.8583" r="1.41667" fill="#63767C"/>
</svg>
